<?xml version="1.0" standalone="no"?>
<!DOCTYPE svg PUBLIC "-//W3C//DTD SVG 20010904//EN"
 "http://www.w3.org/TR/2001/REC-SVG-20010904/DTD/svg10.dtd">
<svg version="1.0" xmlns="http://www.w3.org/2000/svg"
 width="1024.000000pt" height="683.000000pt" viewBox="0 0 1024.000000 683.000000"
 preserveAspectRatio="xMidYMid meet">
<metadata>
Created by potrace 1.16, written by Peter Selinger 2001-2019
</metadata>
<g transform="translate(0.000000,683.000000) scale(0.100000,-0.100000)"
fill="#000000" stroke="none">
<path d="M5080 6085 c-10 -12 -10 -21 -2 -40 14 -31 56 -34 72 -5 24 44 -38
83 -70 45z"/>
<path d="M5086 5904 c-34 -34 -8 -82 39 -70 19 5 25 13 25 34 0 48 -34 67 -64
36z"/>
<path d="M5001 5684 c-58 -29 -104 -84 -122 -144 -9 -28 -49 -75 -153 -179
l-141 -141 -295 -2 -295 -3 -3 -300 -2 -300 -137 -137 c-118 -118 -135 -139
-124 -152 8 -9 19 -16 25 -16 7 0 62 51 124 113 l112 114 0 -494 0 -494 -107
106 c-59 58 -112 104 -117 102 -6 -2 -12 -12 -14 -23 -2 -13 35 -56 118 -139
l120 -120 0 -312 0 -313 312 0 313 0 122 -122 c105 -105 124 -120 137 -109 9
8 16 19 16 26 0 7 -43 53 -95 104 -52 51 -95 94 -95 96 0 3 188 5 417 5 l418
0 -98 -98 c-53 -53 -97 -102 -97 -108 0 -7 7 -17 15 -24 12 -10 35 8 138 109
l124 121 306 0 307 0 0 307 0 307 135 136 c74 75 135 144 135 154 0 9 -7 19
-16 23 -11 4 -51 -29 -135 -113 l-119 -119 0 500 0 500 124 -124 c108 -107
127 -123 140 -112 9 8 16 19 16 25 0 6 -63 74 -140 151 l-140 140 0 297 0 298
-292 0 -293 0 -138 137 c-110 108 -142 146 -157 185 -27 71 -62 112 -122 142
-72 36 -154 36 -227 0z m216 -45 c57 -35 86 -83 91 -148 11 -159 -158 -266
-294 -186 -115 67 -133 207 -39 301 66 66 166 80 242 33z m-332 -251 c11 -49
92 -123 156 -142 66 -20 82 -20 148 0 62 18 131 81 152 138 7 20 16 36 19 36
3 0 50 -45 105 -100 l99 -100 -449 0 -450 0 100 100 c55 55 103 100 107 100 3
0 10 -14 13 -32z m-590 -463 c-126 -129 -233 -235 -237 -235 -5 0 -8 106 -8
235 l0 235 238 0 237 1 -230 -236z m1597 -42 l278 -278 0 -240 0 -240 -158
158 -157 157 -163 0 c-161 0 -162 0 -163 23 -1 12 -2 67 -3 122 -1 55 -3 116
-4 136 -2 33 -20 53 -208 234 l-205 198 -207 -206 -207 -207 0 -150 0 -150
-161 0 -160 0 -162 -162 -162 -163 0 240 0 241 276 282 276 282 506 0 507 0
277 -277z m278 42 c0 -129 -1 -235 -3 -235 -1 0 -108 106 -237 235 l-235 235
238 0 237 0 0 -235z m-876 -26 l176 -171 0 -156 0 -156 -165 -166 -165 -166 0
80 c0 87 -9 112 -34 103 -13 -5 -16 -22 -16 -87 0 -44 -4 -80 -8 -80 -5 0 -81
74 -170 164 l-162 163 0 149 -1 149 178 173 c98 94 181 172 184 172 4 0 86
-77 183 -171z m-417 -679 l161 -160 -45 0 c-50 0 -83 -14 -83 -34 0 -19 23
-26 82 -26 l51 0 -164 -160 -164 -159 -150 -1 -150 0 -180 180 -180 180 23 22
c13 13 87 89 165 170 l142 148 165 0 166 0 161 -160z m1128 -10 l170 -170
-180 -180 -180 -180 -157 0 -157 0 -155 155 c-86 85 -156 157 -156 160 0 3 29
5 64 5 71 0 99 17 76 45 -9 11 -29 14 -76 12 -35 -2 -61 -1 -58 2 3 4 74 77
157 163 l152 158 165 0 165 0 170 -170z m-904 -425 c21 -21 39 26 39 104 l0
76 165 -165 165 -165 0 -171 0 -171 -77 -73 c-43 -41 -122 -116 -176 -168 -53
-51 -101 -92 -106 -90 -5 2 -65 55 -132 118 -68 63 -148 137 -176 164 l-53 49
0 171 0 171 168 168 167 167 3 -87 c2 -48 7 -92 13 -98z m-555 -165 l149 0 -3
-156 c-2 -85 -1 -165 2 -178 4 -17 241 -247 362 -351 13 -11 24 -24 24 -28 0
-4 -98 -7 -217 -7 l-218 0 -297 295 -298 295 0 237 0 237 173 -172 173 -172
150 0z m1332 -427 l-293 -293 -225 0 -225 0 55 52 c30 29 119 114 198 189
l142 136 0 171 0 172 151 0 152 0 166 165 166 164 3 -232 2 -231 -292 -293z
m-1568 -38 l255 -255 -258 0 -257 0 0 255 c0 140 1 255 3 255 1 0 117 -115
257 -255z m1862 0 l-3 -255 -253 0 -253 0 256 255 c141 140 256 255 256 255 0
0 -1 -115 -3 -255z"/>
<path d="M5078 5519 c-41 -24 -11 -109 39 -109 44 0 72 70 43 105 -14 17 -57
19 -82 4z"/>
<path d="M5097 4794 c-4 -4 -7 -20 -7 -36 0 -35 -21 -88 -43 -106 -9 -8 -38
-21 -64 -31 -58 -21 -63 -43 -11 -52 72 -11 118 -65 118 -138 0 -33 16 -49 32
-33 6 6 14 32 19 59 12 63 52 104 111 112 52 7 66 37 21 46 -85 19 -120 54
-131 133 -7 44 -26 64 -45 46z m52 -225 c-16 -15 -29 -32 -29 -37 0 -5 -17 6
-37 27 l-38 36 35 35 35 35 31 -35 31 -35 -28 -26z"/>
<path d="M4393 4145 c-11 -31 13 -36 158 -33 136 3 144 4 144 23 0 19 -8 20
-148 23 -127 2 -148 0 -154 -13z"/>
<path d="M4512 4058 c-26 -26 1 -65 38 -53 16 5 20 14 18 33 -3 30 -35 41 -56
20z"/>
<path d="M4400 3945 c-24 -29 0 -35 145 -35 145 0 169 6 145 35 -10 12 -41 15
-145 15 -104 0 -135 -3 -145 -15z"/>
<path d="M5547 4139 c-21 -16 -25 -24 -17 -34 9 -11 17 -11 45 1 44 18 82 18
135 -1 54 -19 103 -19 140 0 53 28 38 41 -47 42 -43 0 -112 4 -153 7 -67 6
-78 4 -103 -15z"/>
<path d="M5591 4060 c-18 -4 -43 -17 -54 -29 -19 -19 -19 -21 -3 -27 9 -4 28
-2 42 5 35 15 84 14 153 -5 51 -15 64 -15 102 -3 27 9 45 21 47 31 3 16 -3 17
-55 12 -41 -5 -72 -2 -106 10 -51 17 -73 18 -126 6z"/>
<path d="M5590 3963 c-37 -12 -60 -28 -60 -41 0 -14 4 -14 92 4 15 4 48 -1 74
-10 83 -28 184 -17 184 19 0 12 -10 14 -53 9 -36 -4 -67 -1 -100 10 -46 15
-106 20 -137 9z"/>
<path d="M5095 3656 c-21 -15 -17 -55 7 -70 25 -15 53 14 44 47 -7 30 -28 40
-51 23z"/>
<path d="M5090 3505 c-7 -9 -10 -25 -6 -41 5 -20 12 -25 34 -22 19 2 28 9 30
26 6 43 -33 68 -58 37z"/>
<path d="M5084 3335 c-5 -18 -1 -32 10 -43 23 -23 51 -4 51 34 0 24 -5 30 -27
32 -22 3 -29 -2 -34 -23z"/>
<path d="M3433 4341 c-123 -42 -202 -151 -203 -277 0 -119 60 -218 165 -270
48 -23 64 -26 132 -22 87 4 129 21 192 74 60 52 55 64 -28 64 -219 0 -317 225
-169 386 22 24 37 48 33 54 -9 15 -63 11 -122 -9z m-2 -93 c-21 -43 -26 -67
-25 -123 0 -80 17 -119 73 -178 41 -44 77 -65 141 -82 l45 -12 -30 -13 c-16
-8 -64 -15 -106 -18 -62 -3 -83 0 -116 16 -55 28 -110 93 -123 144 -6 24 -13
50 -15 58 -14 47 45 182 94 215 26 18 76 45 82 45 3 0 -6 -24 -20 -52z"/>
<path d="M6762 4341 c-21 -13 -12 -85 12 -89 10 -2 22 2 27 10 13 19 11 62 -3
76 -14 14 -19 15 -36 3z"/>
<path d="M6565 4270 c-14 -22 44 -86 70 -77 23 9 18 35 -12 62 -30 26 -48 31
-58 15z"/>
<path d="M6932 4257 c-26 -28 -28 -55 -5 -64 18 -7 77 51 70 70 -7 22 -42 18
-65 -6z"/>
<path d="M6698 4190 c-54 -29 -92 -98 -85 -156 12 -112 127 -185 229 -145 38
15 84 67 97 112 23 75 -24 172 -95 199 -40 16 -106 11 -146 -10z m142 -37 c98
-58 66 -215 -47 -230 -53 -7 -97 17 -123 67 -24 48 -25 62 -3 107 31 66 112
92 173 56z"/>
<path d="M3056 4064 c-30 -29 -16 -74 23 -74 49 0 68 42 33 73 -23 21 -36 21
-56 1z"/>
<path d="M7187 4062 c-30 -33 -15 -72 28 -72 44 0 63 60 26 80 -27 14 -35 13
-54 -8z"/>
<path d="M6471 4061 c-8 -5 -11 -16 -8 -26 5 -12 17 -15 49 -13 35 2 43 7 43
23 0 16 -8 21 -35 23 -19 1 -41 -2 -49 -7z"/>
<path d="M6997 4064 c-4 -4 -7 -16 -7 -26 0 -16 6 -19 43 -16 34 2 42 7 42 23
0 16 -8 21 -35 23 -20 2 -39 0 -43 -4z"/>
<path d="M6589 3873 c-25 -27 -29 -63 -7 -63 24 0 69 43 66 63 -4 32 -30 32
-59 0z"/>
<path d="M6906 3884 c-7 -18 47 -74 70 -74 28 0 27 31 -2 61 -31 32 -59 38
-68 13z"/>
<path d="M6763 3823 c-19 -7 -16 -78 3 -94 31 -26 57 38 34 82 -11 19 -16 21
-37 12z"/>
<path d="M5042 2780 c-50 -31 -73 -76 -69 -135 2 -27 6 -57 10 -65 6 -12 -3
-19 -38 -29 -101 -30 -125 -147 -44 -216 55 -45 152 -27 184 35 17 34 20 93 5
121 -10 17 -7 19 23 19 l35 0 -14 -39 c-37 -107 74 -199 176 -146 92 48 73
195 -29 226 l-38 11 13 46 c30 97 -37 192 -135 192 -28 0 -59 -8 -79 -20z
m127 -35 c53 -27 67 -124 23 -167 -43 -44 -140 -30 -167 23 -25 48 -19 87 19
125 38 38 77 44 125 19z m-126 -257 c9 -11 17 -35 17 -53 0 -44 -27 -74 -72
-82 -32 -5 -41 -1 -68 25 -33 34 -38 66 -14 100 32 46 102 50 137 10z m256 6
c40 -33 43 -83 6 -119 -51 -52 -137 -15 -137 58 0 40 14 64 47 77 34 14 52 11
84 -16z"/>
<path d="M5092 2268 c-27 -27 -3 -73 35 -66 27 5 25 72 -2 76 -11 1 -26 -3
-33 -10z"/>
<path d="M5092 2128 c-18 -18 -14 -56 7 -68 15 -7 25 -5 42 9 21 16 22 22 11
45 -12 28 -40 34 -60 14z"/>
</g>
</svg>
