<?xml version="1.0" standalone="no"?>
<!DOCTYPE svg PUBLIC "-//W3C//DTD SVG 20010904//EN"
 "http://www.w3.org/TR/2001/REC-SVG-20010904/DTD/svg10.dtd">
<svg version="1.0" xmlns="http://www.w3.org/2000/svg"
 width="621.000000pt" height="595.000000pt" viewBox="0 0 621.000000 595.000000"
 preserveAspectRatio="xMidYMid meet">
<defs>
  <radialGradient id="logo-grad" cx="50%" cy="50%" r="50%">
    <stop offset="0%" stop-color="#7E22CE"/> <!-- Deep Purple for the center -->
    <stop offset="100%" stop-color="#EA580C"/> <!-- Deep Orange for the outer trunk -->
  </radialGradient>
</defs>
<g transform="translate(0.000000,595.000000) scale(0.100000,-0.100000)"
fill="url(#logo-grad)" stroke="none">
<path d="M3770 5740 c20 -13 53 -13 45 0 -3 6 -18 10 -33 10 -21 0 -24 -2 -12
-10z"/>
<path d="M3025 5729 c-4 -6 -1 -15 6 -20 14 -9 6 -9 -65 6 -13 3 -45 -1 -72
-9 -72 -19 -193 -21 -200 -2 -5 12 -21 14 -77 11 -113 -6 -173 -14 -204 -26
-15 -6 -48 -14 -73 -19 -96 -18 -326 -86 -352 -104 -12 -9 -28 -16 -35 -16 -7
0 -77 -34 -155 -76 -150 -80 -370 -222 -473 -305 -33 -27 -65 -49 -71 -49 -17
0 -154 -146 -154 -164 0 -9 -15 -33 -33 -53 -18 -21 -40 -49 -49 -63 -10 -14
-39 -57 -67 -96 -103 -150 -209 -386 -220 -494 -4 -36 -11 -74 -17 -85 -10
-18 -20 -73 -40 -210 -4 -27 -8 -207 -9 -400 -1 -343 -2 -351 -24 -405 -26
-60 -67 -106 -105 -116 -13 -3 -39 1 -59 9 -50 21 -71 66 -69 144 1 59 0 63
-24 69 -32 8 -102 -39 -120 -81 -13 -29 -14 -29 -20 -7 -10 34 -31 26 -38 -15
-10 -62 -7 -100 9 -113 9 -7 12 -22 9 -38 -7 -39 27 -97 86 -148 55 -47 57
-48 150 -67 42 -8 85 -10 122 -5 137 18 220 86 292 238 63 136 86 247 97 470
13 299 37 497 72 615 8 28 25 84 37 125 34 113 119 277 177 338 7 7 26 32 43
55 46 64 209 207 348 305 46 31 85 46 46 17 -17 -13 -18 -14 -1 -15 10 0 20 7
23 15 4 9 19 15 35 15 16 0 46 7 67 16 73 31 82 34 82 24 0 -6 -11 -15 -25
-20 -36 -14 -31 -24 8 -16 17 4 48 9 67 12 19 3 49 9 65 14 94 30 311 80 344
80 12 0 38 7 58 15 35 15 138 35 198 39 17 1 37 5 45 8 26 9 114 30 145 34 85
12 344 19 505 15 63 -1 125 0 138 3 13 3 32 0 43 -7 14 -9 21 -9 31 1 6 6 21
12 33 11 11 0 14 -3 8 -6 -7 -2 -13 -9 -13 -14 0 -13 51 0 71 18 16 13 49 9
49 -7 0 -16 27 -17 65 -4 32 12 47 12 78 3 20 -7 37 -18 37 -26 0 -9 14 -13
46 -13 25 0 43 3 40 8 -2 4 2 16 9 26 15 19 24 19 110 -2 22 -6 58 -13 80 -16
50 -6 115 -22 122 -30 4 -3 -8 -6 -25 -6 -68 0 -82 -23 -24 -39 56 -16 72 -13
82 13 9 25 11 25 135 -5 22 -6 63 -15 90 -20 78 -16 296 -113 377 -168 40 -28
100 -75 133 -106 33 -31 73 -64 88 -73 16 -9 39 -38 52 -63 13 -25 30 -51 39
-58 8 -7 34 -47 57 -89 23 -43 51 -90 64 -107 20 -27 38 -79 52 -145 2 -14 7
-32 10 -40 10 -26 12 -34 23 -84 5 -27 15 -55 20 -62 6 -7 10 -23 8 -36 -3
-33 13 -138 22 -138 6 0 11 -34 11 -80 0 -8 5 -46 11 -83 10 -70 17 -149 18
-204 0 -18 7 -36 15 -40 14 -8 15 -14 29 -335 3 -56 0 -87 -6 -85 -6 1 -13 -4
-15 -10 -3 -7 2 -13 11 -13 13 0 13 -4 0 -35 -18 -45 -18 -79 2 -117 21 -41
11 -196 -12 -177 -8 7 -18 9 -22 5 -4 -4 1 -14 11 -21 17 -12 18 -20 7 -112
-15 -117 -95 -371 -173 -543 -46 -103 -192 -339 -219 -356 -8 -5 -9 7 -5 37
l7 44 -40 -45 c-22 -25 -46 -59 -55 -77 -9 -18 -21 -36 -28 -40 -7 -4 -24 -24
-38 -43 -42 -56 -145 -160 -157 -160 -7 0 -12 -6 -12 -14 0 -18 -20 -25 -51
-19 -19 3 -31 -5 -64 -47 -35 -44 -41 -48 -45 -30 -5 21 -6 21 -29 -4 -13 -14
-39 -30 -58 -37 -26 -8 -33 -16 -31 -32 2 -11 -3 -22 -11 -25 -10 -3 -12 0 -8
12 9 23 -10 20 -23 -4 -6 -11 -14 -19 -18 -18 -14 3 -42 -14 -37 -22 11 -18
-198 -167 -247 -176 -18 -4 -46 -17 -63 -29 -43 -32 -111 -65 -168 -82 -28 -8
-67 -26 -88 -39 -21 -13 -47 -24 -57 -24 -11 0 -41 -11 -67 -26 -59 -31 -94
-25 -50 10 36 29 20 41 -34 26 -46 -12 -58 -25 -41 -45 9 -11 7 -16 -9 -24
-23 -13 -34 -14 -27 -3 2 4 -2 16 -9 26 -13 17 -17 17 -76 2 -34 -8 -64 -18
-68 -21 -8 -9 28 -35 48 -35 24 -1 -151 -60 -177 -60 -35 0 -16 18 26 26 52 9
72 22 72 44 0 24 -25 27 -34 4 -5 -14 -16 -16 -66 -11 -52 6 -63 4 -80 -13
-24 -24 -34 -25 -49 -7 -11 14 -91 16 -122 3 -9 -4 -33 -3 -55 1 -21 5 -58 6
-82 3 -24 -4 -45 -3 -48 1 -2 4 -26 11 -52 14 -159 21 -409 103 -557 182 -32
17 -135 84 -200 130 -103 72 -212 221 -270 368 -15 39 -33 81 -40 95 -32 62
-56 129 -65 178 -5 29 -14 60 -19 70 -22 41 -34 262 -19 362 14 99 14 101 31
158 9 29 16 55 16 57 0 19 15 109 27 156 8 31 16 76 19 99 5 38 4 41 -10 30
-13 -11 -14 -10 -6 11 5 13 14 23 20 21 15 -3 48 53 66 112 8 27 19 54 23 60
14 17 42 107 42 132 0 27 85 192 159 310 17 26 31 52 31 57 0 6 15 28 33 51
18 23 43 58 55 79 33 58 115 147 134 147 9 0 19 4 22 9 3 5 14 7 24 4 13 -3
35 11 68 43 31 31 56 47 69 46 12 -2 31 8 45 23 14 15 30 23 41 20 11 -4 18 1
22 15 3 13 13 20 29 20 13 0 32 6 43 14 11 7 56 25 100 40 44 15 89 31 100 36
62 27 130 41 206 41 166 -1 234 5 257 19 21 13 25 13 36 -2 10 -13 25 -17 64
-15 29 1 52 -2 52 -6 0 -5 9 -5 20 -2 12 4 27 1 35 -5 8 -6 18 -9 24 -6 5 4
16 -1 24 -9 9 -8 33 -18 54 -21 21 -3 42 -9 47 -14 5 -5 15 -6 23 -3 7 3 22
-4 32 -16 10 -12 25 -19 33 -16 8 3 19 -4 26 -17 7 -13 40 -41 73 -62 34 -22
77 -59 97 -83 20 -24 41 -43 47 -43 10 0 61 -116 85 -192 6 -20 23 -54 37 -74
53 -78 70 -135 82 -272 7 -73 10 -153 6 -179 -9 -70 -66 -254 -87 -283 -10
-14 -42 -61 -71 -104 -67 -103 -161 -195 -262 -255 -116 -70 -138 -80 -218
-100 -79 -19 -241 -20 -276 -1 -11 5 -30 10 -43 10 -36 0 -85 35 -168 121 -76
78 -95 90 -102 67 -3 -7 -11 -4 -24 10 -10 13 -32 36 -49 52 -16 17 -27 30
-23 30 3 0 -16 23 -44 52 l-50 52 4 101 c3 77 10 112 27 150 70 153 75 159
187 234 115 77 210 80 310 12 43 -28 57 -44 66 -76 29 -103 12 -166 -49 -186
-21 -6 -41 -17 -45 -23 -5 -8 -11 -7 -20 2 -15 15 -38 16 -38 2 0 -21 78 -87
110 -94 28 -5 31 -8 20 -21 -7 -9 -10 -19 -6 -22 9 -9 93 -4 122 7 12 5 25 6
28 2 4 -3 23 -7 43 -8 29 -1 42 5 66 33 31 35 49 36 40 3 -9 -34 12 -22 36 20
12 22 20 40 17 40 -3 0 8 26 24 58 19 39 30 79 33 122 3 36 8 73 12 83 4 9 3
17 -1 17 -5 0 -9 20 -10 44 -1 55 -93 246 -118 246 -6 0 -17 9 -24 20 -7 11
-17 20 -23 20 -6 0 -29 13 -52 29 -46 31 -153 71 -191 71 -14 0 -28 5 -32 11
-10 17 -234 4 -304 -16 -30 -9 -74 -22 -97 -28 -24 -6 -43 -15 -43 -19 0 -5
-9 -8 -19 -8 -10 0 -42 -16 -71 -35 -29 -19 -68 -42 -86 -51 -19 -9 -39 -25
-44 -35 -6 -10 -30 -32 -53 -48 -46 -31 -139 -163 -151 -213 -3 -16 -12 -28
-20 -28 -7 0 -19 -15 -27 -32 -7 -18 -15 -35 -18 -38 -12 -10 -39 -77 -50
-125 -27 -108 -31 -191 -13 -273 7 -33 8 -61 2 -76 -6 -16 -4 -32 5 -49 7 -14
11 -28 8 -31 -7 -6 56 -162 84 -208 13 -21 23 -42 23 -46 0 -34 145 -174 300
-289 82 -61 218 -124 271 -125 24 -1 70 -9 101 -20 38 -12 88 -18 145 -18 48
0 121 -5 161 -10 107 -14 345 24 428 68 10 5 39 13 64 17 112 18 230 83 355
193 28 25 64 51 81 58 51 22 193 172 208 221 4 13 11 22 16 20 12 -3 90 82 90
99 0 8 4 14 9 14 11 0 81 117 81 135 0 8 10 31 22 52 42 74 49 93 69 180 11
48 27 119 35 156 19 80 12 195 -12 204 -8 3 -14 12 -14 21 0 13 3 12 15 -4 15
-18 15 -18 13 11 -2 17 -9 35 -15 40 -7 6 -16 37 -19 69 -7 54 -6 59 11 53 14
-6 16 -3 11 17 -3 14 -2 27 3 31 30 18 21 184 -18 331 -20 78 -128 310 -158
339 -10 10 -22 26 -28 36 -77 134 -107 170 -221 267 -43 36 -234 162 -247 162
-4 0 -24 11 -45 24 -20 14 -59 32 -87 41 -27 9 -68 25 -90 35 -60 26 -134 51
-185 62 -49 10 -266 12 -282 2 -5 -3 -78 -8 -161 -10 -84 -3 -184 -11 -224
-19 -40 -8 -84 -15 -98 -15 -15 0 -36 -5 -48 -12 -12 -7 -44 -15 -72 -19 -27
-4 -77 -15 -110 -23 -33 -8 -85 -20 -115 -27 -63 -13 -240 -81 -286 -110 -17
-10 -42 -19 -56 -19 -13 0 -39 -11 -58 -25 -19 -14 -51 -30 -72 -36 -46 -12
-214 -124 -235 -156 -8 -13 -22 -23 -29 -23 -8 0 -14 -7 -14 -15 0 -9 -9 -15
-24 -15 -23 0 -165 -98 -196 -135 -7 -8 -19 -15 -26 -15 -8 0 -14 -9 -14 -20
0 -11 -15 -37 -34 -57 -18 -21 -43 -54 -55 -73 -18 -30 -21 -32 -21 -12 0 31
-13 28 -59 -18 -54 -53 -78 -99 -59 -112 10 -7 8 -8 -5 -4 -12 4 -20 0 -23
-12 -16 -48 -36 -82 -49 -82 -8 0 -15 -7 -15 -15 0 -16 -67 -125 -76 -125 -4
0 -4 9 -1 20 3 11 1 20 -4 20 -9 0 -13 -35 -10 -72 1 -10 -3 -18 -8 -18 -6 0
-11 -15 -11 -32 0 -43 -7 -53 -53 -72 -31 -13 -37 -19 -32 -36 4 -11 2 -20 -4
-20 -6 0 -11 -6 -11 -14 0 -8 -7 -21 -15 -30 -8 -8 -17 -27 -19 -43 -2 -15 -7
-36 -11 -46 -6 -15 -4 -18 11 -15 15 2 18 -2 17 -19 -2 -15 3 -23 12 -23 8 0
15 -7 15 -15 0 -18 -12 -19 -27 -4 -15 15 -33 3 -33 -22 0 -13 -7 -19 -24 -19
-21 0 -24 -5 -29 -62 -3 -35 -12 -81 -20 -104 -9 -24 -12 -47 -7 -54 6 -9 1
-25 -12 -43 -27 -38 -38 -127 -15 -127 9 0 20 8 26 17 14 26 17 14 10 -37 -3
-25 -7 -37 -7 -27 -1 9 -5 17 -9 17 -22 -1 -38 -24 -59 -86 -27 -82 -33 -146
-15 -168 10 -12 10 -20 3 -29 -22 -26 -12 -407 11 -435 7 -9 6 -20 -2 -36 -11
-19 -10 -30 8 -69 13 -29 19 -56 15 -75 -4 -19 1 -45 15 -75 12 -25 21 -53 21
-61 0 -8 14 -41 30 -73 17 -31 30 -69 30 -83 1 -39 37 -110 57 -111 10 -1 25
-2 33 -3 8 0 16 -9 18 -18 2 -13 -1 -16 -12 -12 -22 8 -20 -8 4 -33 10 -12 22
-32 25 -45 8 -31 25 -52 53 -67 13 -7 21 -15 18 -18 -12 -12 17 -33 44 -33 19
0 33 -8 44 -25 15 -23 15 -25 0 -25 -13 0 -14 -3 -4 -15 7 -8 19 -15 26 -15 8
0 14 -4 14 -10 0 -31 17 -61 33 -58 7 1 25 -10 42 -25 18 -18 36 -26 48 -23
24 6 53 -12 150 -94 50 -41 72 -66 62 -68 -19 -4 -19 -11 1 -33 13 -14 21 -16
36 -8 26 14 46 5 50 -23 2 -13 15 -28 30 -36 16 -7 28 -17 28 -22 0 -15 64
-50 71 -38 4 6 12 1 19 -13 17 -32 31 -40 58 -34 14 4 21 2 18 -4 -4 -5 -2
-12 3 -15 5 -4 13 -2 16 4 8 13 43 4 66 -16 9 -8 31 -13 50 -12 28 2 33 0 31
-14 -3 -18 9 -22 54 -19 12 1 29 -6 38 -15 10 -9 34 -19 54 -21 20 -2 41 -8
47 -12 14 -12 73 -12 80 0 10 15 35 10 35 -6 0 -15 40 -30 62 -22 7 2 24 0 38
-5 14 -6 84 -11 155 -13 72 -2 153 -7 180 -11 28 -4 55 -6 60 -5 6 2 76 5 158
7 101 2 156 8 175 18 15 8 54 17 87 21 33 4 77 14 99 21 21 8 51 14 66 14 16
0 58 13 95 30 37 16 78 32 92 35 15 2 31 9 37 15 5 5 17 10 27 10 9 0 28 9 42
20 14 11 36 20 49 20 22 0 56 36 44 47 -2 3 -40 -9 -83 -25 -116 -44 -288 -97
-305 -94 -4 1 -26 -6 -50 -15 -32 -12 -87 -16 -218 -19 -117 -2 -162 0 -135 6
22 5 75 9 118 9 45 1 93 7 113 16 20 8 77 20 127 26 51 7 103 17 117 25 14 7
44 15 65 19 41 7 67 17 245 103 58 27 160 75 228 106 113 50 252 132 266 155
4 5 23 15 44 22 20 6 48 20 61 30 13 11 32 19 43 19 10 0 37 12 59 27 33 22
44 25 59 15 14 -9 21 -7 36 9 9 10 23 19 29 19 7 0 18 7 25 15 11 13 8 13 -18
4 -17 -6 -36 -17 -43 -25 -13 -15 -29 -19 -29 -6 0 13 72 50 108 55 33 5 44
13 102 67 15 14 58 50 96 80 84 67 191 175 199 201 4 10 14 19 24 19 25 0 211
200 211 227 0 6 8 18 18 25 11 7 25 24 32 38 7 14 22 36 35 50 28 31 145 245
145 265 0 8 5 15 10 15 6 0 10 5 10 11 0 6 9 18 19 27 11 10 24 33 30 52 5 19
21 62 35 95 14 33 26 68 26 78 0 34 -29 16 -51 -33 -25 -56 -34 -61 -18 -9 5
19 14 54 19 79 4 25 15 70 24 100 9 30 23 107 31 170 8 63 19 131 24 150 33
122 44 215 56 479 3 63 8 118 11 122 2 5 7 43 10 86 4 43 10 84 14 92 6 11 20
-89 21 -154 1 -34 9 -65 17 -65 35 0 44 367 12 530 -18 97 -23 132 -41 277
-10 86 -26 136 -40 127 -11 -6 -10 -7 -15 74 -1 34 -8 87 -14 117 -6 30 -9 59
-5 65 3 6 -1 13 -10 17 -13 4 -15 13 -11 34 3 16 1 29 -4 29 -5 0 -16 13 -25
30 -12 23 -13 34 -4 54 13 27 6 56 -12 56 -8 0 -8 -4 -1 -13 13 -15 -1 -42
-17 -33 -6 4 -11 12 -11 17 0 6 -11 27 -25 47 -14 20 -25 43 -25 51 0 7 -12
25 -26 38 -33 31 -24 42 12 14 15 -12 30 -18 33 -15 3 4 0 9 -6 11 -7 3 -13
13 -13 24 0 11 -9 27 -20 36 -20 18 -28 39 -10 28 21 -13 9 32 -20 75 -16 25
-30 50 -30 55 0 11 -74 81 -144 135 -25 19 -48 43 -51 53 -4 9 -19 24 -35 32
-37 19 -44 19 -36 0 5 -14 2 -14 -23 0 -16 8 -38 25 -48 37 -10 13 -31 30 -47
38 -16 8 -47 32 -69 53 -23 22 -48 37 -63 37 -15 0 -22 4 -19 10 7 11 -82 53
-95 45 -5 -3 -11 3 -14 12 -3 10 -18 23 -33 30 -56 23 -219 82 -248 89 -16 4
-34 9 -40 12 -5 3 -22 7 -37 9 -16 2 -87 12 -159 23 -72 11 -135 18 -140 14
-5 -3 -21 2 -35 11 -14 9 -33 14 -41 11 -9 -4 -21 -2 -27 4 -7 5 -28 12 -47
14 -19 3 -49 8 -68 10 -19 3 -39 10 -45 16 -5 5 -21 10 -34 10 -14 0 -21 4
-16 11 12 20 -18 27 -52 13 -34 -14 -111 -10 -129 7 -12 12 -52 11 -60 -1 -10
-16 -65 -12 -65 5 0 8 -7 15 -15 15 -8 0 -15 -4 -15 -9 0 -12 -55 -21 -90 -14
-16 3 -30 12 -30 19 0 8 -9 14 -20 14 -18 0 -25 -10 -21 -32 0 -5 -16 -8 -36
-7 -35 0 -36 1 -13 10 20 8 22 12 10 19 -9 5 -19 5 -27 -2 -7 -5 -20 -8 -28
-4 -8 3 -15 1 -15 -4 0 -5 8 -11 18 -13 11 -3 7 -5 -10 -6 -15 0 -30 4 -33 9
-5 8 -12 7 -23 -2 -13 -11 -15 -10 -9 4 5 14 -2 18 -37 23 -41 7 -86 -6 -86
-23 0 -4 -44 -8 -98 -9 -93 -1 -95 -1 -57 12 22 7 36 14 30 15 -61 9 -94 9
-100 -1z m319 -14 c4 -11 -1 -14 -20 -13 -23 2 -24 4 -8 15 22 16 21 16 28 -2z
m1685 -414 c-12 -4 -79 30 -79 41 0 4 20 -3 45 -15 25 -12 40 -24 34 -26z m79
-35 c21 -13 66 -38 100 -55 34 -17 62 -36 62 -41 0 -6 6 -10 13 -10 8 0 27
-13 43 -30 16 -16 34 -30 39 -30 13 -1 49 -50 37 -50 -5 0 -16 7 -23 16 -19
23 -193 145 -261 183 -53 29 -67 41 -53 41 3 0 22 -11 43 -24z m-3148 -246
c-8 -5 -19 -10 -25 -10 -5 0 -3 5 5 10 8 5 20 10 25 10 6 0 3 -5 -5 -10z
m3690 -251 c11 -21 16 -39 10 -39 -5 0 -17 17 -27 38 -9 20 -19 41 -21 46 -3
5 1 6 7 2 6 -4 20 -25 31 -47z m110 -170 c8 -15 8 -19 -2 -17 -16 4 -28 19
-28 36 0 17 17 6 30 -19z m-1970 -99 c0 -5 -2 -10 -4 -10 -3 0 -8 5 -11 10 -3
6 -1 10 4 10 6 0 11 -4 11 -10z m-410 -419 c2 -1 -11 -12 -30 -25 -29 -19 -40
-22 -63 -14 -32 12 -29 18 16 33 27 9 49 11 77 6z m2546 -546 c1 -14 -2 -25
-7 -25 -5 0 -9 11 -9 25 0 33 15 33 16 0z m-4870 -972 c-2 -16 -4 -34 -5 -40
0 -7 -4 -13 -8 -13 -5 0 -7 17 -6 37 2 46 1 43 12 43 6 0 8 -12 7 -27z m1289
-173 c3 -6 -1 -7 -9 -4 -18 7 -21 14 -7 14 6 0 13 -4 16 -10z m225 -65 c0 -17
-19 1 -33 30 -24 50 -21 54 8 11 14 -20 25 -39 25 -41z m-1527 -70 c-9 -55
-13 -62 -24 -43 -6 11 -5 31 3 57 14 45 30 35 21 -14z m428 -65 c-9 -23 -10
-21 -10 15 -1 22 3 51 7 65 6 22 7 20 10 -15 2 -23 -1 -52 -7 -65z m-484 38
c-3 -7 -5 -2 -5 12 0 14 2 19 5 13 2 -7 2 -19 0 -25z m41 -226 c-1 -4 2 -29 6
-57 15 -106 25 -181 29 -215 3 -19 12 -56 20 -82 9 -26 17 -64 18 -85 0 -21 6
-62 12 -91 5 -28 7 -55 4 -58 -14 -14 -37 20 -37 55 0 20 -6 45 -13 56 -8 11
-19 36 -26 55 -9 28 -9 35 4 42 20 12 19 27 -2 50 -9 10 -17 26 -18 36 0 9 -4
23 -9 30 -12 20 -24 112 -14 118 4 3 6 10 2 15 -3 5 -10 7 -15 4 -18 -12 -19
21 -3 61 10 21 16 49 15 61 -2 17 2 21 13 17 8 -3 15 -9 14 -12z m452 -112 c0
-20 -2 -22 -10 -10 -5 8 -10 26 -10 40 0 20 2 22 10 10 5 -8 10 -26 10 -40z
m31 -182 c11 -21 11 -22 -4 -9 -10 7 -17 17 -17 22 0 15 9 10 21 -13z m-359
-361 c15 -28 30 -62 33 -74 10 -35 -14 -28 -26 7 -6 17 -15 30 -20 30 -14 0
-39 57 -33 74 10 25 17 19 46 -37z m199 -364 c13 -17 13 -17 -6 -3 -11 8 -22
16 -24 17 -2 2 0 3 6 3 6 0 17 -8 24 -17z m169 -183 c0 -5 -4 -10 -10 -10 -5
0 -10 5 -10 10 0 6 5 10 10 10 6 0 10 -4 10 -10z m1990 -60 c0 -5 -5 -10 -11
-10 -5 0 -7 5 -4 10 3 6 8 10 11 10 2 0 4 -4 4 -10z m-780 -46 c0 -2 -7 -4
-15 -4 -8 0 -15 4 -15 10 0 5 7 7 15 4 8 -4 15 -8 15 -10z m363 -31 c-7 -2
-19 -2 -25 0 -7 3 -2 5 12 5 14 0 19 -2 13 -5z"/>
<path d="M3988 5139 c-21 -13 -3 -20 65 -26 60 -5 93 6 67 22 -15 9 -117 13
-132 4z"/>
<path d="M4342 5067 c-10 -12 -4 -17 33 -31 24 -10 49 -15 54 -12 5 3 25 -1
45 -9 40 -17 80 -20 71 -5 -3 6 -15 10 -27 10 -11 0 -22 8 -25 19 -7 29 -132
52 -151 28z"/>
<path d="M4694 4938 c25 -16 50 -27 55 -24 5 3 29 -5 53 -19 48 -28 70 -32 62
-11 -7 18 -140 78 -182 82 l-33 2 45 -30z"/>
<path d="M1568 4626 c-106 -39 -173 -101 -207 -192 -26 -68 -19 -99 29 -131
43 -30 101 -29 165 1 108 50 155 115 155 215 0 48 -5 65 -22 85 -28 32 -72 40
-120 22z"/>
<path d="M1566 3791 c-4 -7 -5 -15 -2 -18 9 -9 19 4 14 18 -4 11 -6 11 -12 0z"/>
<path d="M1217 3303 c-4 -3 -7 -11 -7 -17 0 -6 5 -5 12 2 6 6 9 14 7 17 -3 3
-9 2 -12 -2z"/>
<path d="M210 3220 c0 -5 7 -10 15 -10 8 0 15 5 15 10 0 6 -7 10 -15 10 -8 0
-15 -4 -15 -10z"/>
<path d="M5970 3113 c0 -41 3 -54 10 -43 13 20 13 100 0 100 -6 0 -10 -26 -10
-57z"/>
<path d="M5950 2981 c-13 -26 -13 -48 1 -57 15 -9 29 14 29 49 0 31 -15 36
-30 8z"/>
<path d="M1063 2950 c1 -11 5 -20 9 -20 4 0 8 9 8 20 0 11 -4 20 -9 20 -6 0
-9 -9 -8 -20z"/>
<path d="M5947 2830 c-3 -11 -1 -23 4 -26 5 -3 9 6 9 20 0 31 -6 34 -13 6z"/>
<path d="M5925 2710 c-3 -5 -3 -15 1 -21 6 -11 23 6 24 24 0 10 -18 9 -25 -3z"/>
<path d="M5890 2520 c0 -5 5 -10 10 -10 6 0 10 5 10 10 0 6 -4 10 -10 10 -5 0
-10 -4 -10 -10z"/>
<path d="M3890 920 c0 -5 4 -10 9 -10 6 0 13 5 16 10 3 6 -1 10 -9 10 -9 0
-16 -4 -16 -10z"/>
<path d="M3753 864 c-33 -14 -41 -28 -24 -39 5 -3 24 8 42 25 36 33 32 36 -18
14z"/>
<path d="M1529 719 c-11 -7 -10 -10 8 -15 15 -4 20 -11 16 -22 -5 -14 -3 -15
7 -5 10 9 17 10 27 2 7 -7 13 -8 13 -3 -1 28 -49 57 -71 43z"/>
<path d="M1628 643 c7 -3 16 -2 19 1 4 3 -2 6 -13 5 -11 0 -14 -3 -6 -6z"/>
</g>
</svg>
