<?xml version="1.0" standalone="no"?>
<!DOCTYPE svg PUBLIC "-//W3C//DTD SVG 20010904//EN"
 "http://www.w3.org/TR/2001/REC-SVG-20010904/DTD/svg10.dtd">
<svg version="1.0" xmlns="http://www.w3.org/2000/svg"
 width="910.000000pt" height="377.000000pt" viewBox="0 0 910.000000 377.000000"
 preserveAspectRatio="xMidYMid meet">
<metadata>
Created by potrace 1.16, written by Peter Selinger 2001-2019
</metadata>
<g transform="translate(0.000000,377.000000) scale(0.100000,-0.100000)"
fill="#000000" stroke="none">
<path d="M6425 3562 c-3 -3 -234 -7 -513 -9 -438 -3 -509 -5 -518 -18 -13 -17
-72 -15 -83 3 -8 13 -447 19 -596 8 -92 -6 -457 -16 -830 -21 -115 -2 -289 -5
-385 -6 -96 -2 -218 -2 -270 -1 -52 2 -543 1 -1090 -1 -949 -4 -997 -3 -1040
14 -25 10 -70 20 -100 21 -50 3 -55 1 -58 -19 -3 -24 -16 -30 -26 -14 -8 13
-114 5 -132 -10 -10 -8 -36 -10 -87 -5 -101 10 -343 12 -397 3 -42 -7 -46 -11
-58 -47 -14 -47 -8 -68 24 -76 28 -7 30 -13 9 -28 -19 -13 -10 -76 10 -76 8 0
15 -5 17 -10 2 -6 32 -15 66 -20 35 -6 71 -15 80 -19 40 -21 152 -30 357 -31
121 0 248 -3 283 -7 60 -6 64 -8 81 -42 49 -95 63 -214 40 -350 -24 -150 -78
-250 -201 -373 -70 -70 -104 -95 -171 -128 -46 -22 -90 -40 -98 -39 -8 0 -41
35 -74 77 -69 88 -187 175 -251 185 -94 15 -184 -49 -203 -145 -14 -67 -1
-153 34 -225 37 -75 169 -196 262 -239 68 -32 73 -37 110 -106 140 -260 379
-547 691 -831 73 -66 284 -228 397 -305 83 -56 260 -146 380 -193 176 -70 199
-77 254 -83 30 -3 59 -10 65 -16 5 -5 28 -10 50 -10 35 0 76 -9 126 -29 8 -3
45 -6 83 -6 49 0 66 3 63 12 -10 25 16 24 43 -1 31 -30 61 -34 61 -8 0 13 2
14 9 4 7 -11 12 -12 29 -1 17 11 25 11 45 0 20 -11 29 -11 48 -1 13 7 27 18
31 23 4 7 12 6 22 -2 13 -11 19 -11 33 0 13 11 17 11 20 2 6 -18 21 -16 54 7
21 16 33 19 47 11 25 -13 100 6 112 30 8 14 18 16 44 12 29 -5 39 -1 61 23 15
16 37 30 50 31 26 2 112 55 160 98 17 15 39 34 50 44 11 9 30 28 42 44 l21 27
-20 41 c-10 22 -34 49 -53 60 -18 11 -36 30 -39 43 -3 13 -15 26 -26 29 -11 3
-23 13 -26 24 -11 29 -63 73 -80 66 -8 -3 -14 -2 -13 3 9 50 -29 34 -114 -47
-161 -154 -450 -241 -741 -224 -67 4 -161 16 -211 26 -49 11 -114 24 -142 30
-29 5 -117 32 -195 60 -287 101 -520 251 -739 476 -125 128 -297 372 -385 545
l-34 67 48 7 c122 18 270 92 392 197 l76 64 34 -23 c109 -71 298 -117 463
-113 l89 3 59 -89 c108 -162 265 -299 438 -383 118 -56 171 -63 268 -34 177
54 269 253 277 603 4 159 4 163 27 174 13 7 107 18 209 24 102 7 210 16 239
22 30 5 58 6 62 2 19 -20 27 -571 10 -667 -11 -61 -44 -128 -80 -160 -34 -31
-27 -62 32 -136 15 -19 31 -39 35 -45 34 -48 59 -70 76 -67 14 3 17 0 13 -12
-7 -16 78 -106 101 -106 19 0 14 18 -13 47 -30 33 -25 43 7 13 22 -21 59 -40
79 -40 5 0 9 9 9 19 0 15 5 18 21 14 13 -4 26 0 33 9 6 8 20 18 31 22 16 6 17
9 5 16 -12 8 -8 23 27 92 40 79 43 90 53 213 12 153 3 438 -20 640 -16 136
-14 390 4 480 16 76 23 127 47 308 9 74 8 81 -17 138 -15 33 -25 61 -23 63 2
3 287 8 632 11 l627 7 24 -54 c31 -69 46 -144 46 -221 -1 -200 -65 -349 -217
-503 -80 -81 -105 -99 -217 -148 l-56 -25 -60 78 c-104 138 -181 191 -276 191
-75 0 -135 -34 -165 -92 -18 -36 -21 -55 -17 -132 3 -77 8 -100 33 -146 41
-78 166 -198 243 -234 60 -29 64 -33 111 -121 150 -280 352 -540 627 -805 197
-189 506 -429 672 -521 108 -60 353 -154 457 -175 39 -8 86 -21 105 -28 20 -8
100 -26 179 -41 129 -24 160 -26 295 -21 215 7 315 22 450 67 208 70 414 224
497 374 42 77 47 95 23 95 -15 0 -84 68 -84 83 0 5 -14 7 -31 5 -27 -3 -34 2
-50 32 -10 19 -31 41 -46 49 -16 7 -30 17 -33 20 -14 16 -47 39 -66 45 -18 5
-28 -3 -59 -51 -70 -108 -237 -220 -436 -294 -112 -41 -325 -73 -433 -64 -223
18 -545 99 -721 180 -38 18 -90 41 -115 52 -114 50 -307 200 -483 375 -96 96
-137 147 -218 271 -89 136 -215 365 -233 425 -6 18 -4 22 14 22 73 0 232 64
349 140 164 107 296 307 331 501 36 197 -16 435 -134 610 -19 29 -34 54 -32
56 5 5 607 5 612 0 2 -2 -3 -23 -11 -47 -48 -136 -79 -351 -79 -545 0 -145 3
-168 28 -250 69 -230 370 -536 625 -634 124 -48 202 -58 299 -39 158 31 263
101 352 233 93 138 139 255 160 402 12 94 0 275 -29 408 -27 121 -124 353
-182 437 -11 14 -19 29 -19 32 0 4 133 6 295 5 252 0 295 -3 295 -15 0 -8 -8
-77 -17 -152 -21 -158 -23 -431 -8 -732 13 -252 12 -568 -3 -648 -6 -35 -25
-88 -42 -118 -31 -55 -38 -84 -20 -84 6 0 10 -11 10 -23 0 -13 9 -32 20 -42
15 -13 19 -27 16 -47 -4 -23 0 -31 19 -38 13 -5 26 -14 30 -20 5 -8 14 -5 30
10 21 20 23 20 39 4 12 -12 14 -20 7 -27 -6 -6 -11 -23 -11 -39 0 -23 10 -33
61 -63 33 -19 63 -35 67 -35 3 0 16 12 29 28 18 22 22 24 23 9 0 -12 6 -17 18
-15 22 4 67 88 83 153 7 28 18 64 24 80 7 17 20 89 29 160 12 105 14 162 6
300 -5 94 -15 202 -22 240 -17 98 -17 523 1 655 7 58 22 151 32 207 20 108 18
145 -12 205 -26 52 -24 56 22 54 26 -1 43 2 46 10 5 13 58 9 78 -6 14 -11 143
-12 149 -1 3 5 53 8 110 8 58 -1 108 2 112 6 15 15 -21 27 -86 28 -36 0 -85 3
-110 4 -286 22 -357 29 -370 36 -8 5 88 9 220 10 345 1 428 3 434 10 4 3 4 13
0 22 -4 12 -13 15 -31 11 -19 -5 -24 -3 -21 7 3 8 14 13 26 11 45 -7 31 19
-25 45 -44 20 -82 29 -153 34 -52 3 -113 11 -135 17 -22 5 -164 10 -318 10
-153 0 -281 3 -284 6 -4 3 18 6 48 7 30 0 74 2 99 4 25 1 130 4 233 5 176 2
249 9 265 25 17 16 -33 24 -143 23 -68 -1 -138 4 -162 10 -23 7 -54 13 -70 13
-199 4 -1794 5 -1798 1z m-1252 -39 c-7 -2 -21 -2 -30 0 -10 3 -4 5 12 5 17 0
24 -2 18 -5z m2354 -40 c3 -7 -3 -9 -17 -6 -29 8 -37 25 -9 21 12 -1 24 -8 26
-15z m388 -3 c14 -6 5 -9 -35 -9 -40 0 -49 3 -35 9 11 5 27 9 35 9 8 0 24 -4
35 -9z m-251 -200 c-7 -7 -19 -7 -35 -1 -23 9 -22 10 11 10 23 1 31 -2 24 -9z
m226 1 c0 -5 -20 -9 -45 -9 -25 -1 -45 3 -45 8 0 6 20 10 45 10 25 0 45 -4 45
-9z m-5392 -96 c18 -7 57 -95 75 -169 26 -105 37 -187 39 -300 l3 -109 -89
-18 c-150 -30 -267 -67 -361 -113 l-89 -44 -34 29 c-32 28 -33 29 -69 14 -21
-9 -73 -39 -118 -68 l-80 -52 -104 -3 c-59 -2 -107 0 -113 6 -6 6 -4 20 5 39
48 91 67 299 39 422 -17 75 -74 201 -130 285 -26 39 -48 74 -50 78 -6 13 1042
16 1076 3z m990 4 c100 -1 142 -4 142 -12 0 -7 -7 -40 -15 -74 -14 -61 -17
-88 -30 -258 -9 -123 -8 -120 -67 -138 -93 -29 -139 -36 -321 -48 -109 -8
-181 -9 -185 -3 -5 5 -17 45 -27 89 -22 98 -96 301 -136 372 -16 29 -29 57
-29 63 0 9 403 20 490 13 19 -1 99 -3 178 -4z m3543 -47 c14 -30 39 -108 55
-175 26 -109 29 -138 28 -272 -2 -221 -33 -340 -124 -479 -88 -135 -182 -203
-297 -213 -84 -8 -133 18 -167 89 -72 151 -76 516 -7 758 40 139 106 335 116
342 5 4 91 6 190 5 l180 -2 26 -53z m-4419 -967 c-6 -76 -34 -189 -57 -236
-47 -91 -128 -127 -175 -77 -30 32 -28 133 4 196 28 55 43 70 111 107 28 15
59 34 70 41 34 24 50 14 47 -31z m1035 -107 c-3 -8 -6 -5 -6 6 -1 11 2 17 5
13 3 -3 4 -12 1 -19z m0 -320 c-2 -18 -4 -4 -4 32 0 36 2 50 4 33 2 -18 2 -48
0 -65z m4282 19 c-1 -18 -5 -45 -9 -62 -6 -23 -8 -14 -9 38 -1 43 3 66 9 62 6
-3 9 -21 9 -38z m-4374 -256 c-31 -30 -35 -32 -25 -11 7 14 22 38 34 55 18 26
21 27 24 11 3 -12 -10 -32 -33 -55z m86 -839 c-5 -9 -28 -35 -50 -57 -33 -31
-43 -37 -53 -26 -11 10 -2 22 41 61 52 47 81 57 62 22z m-816 -301 c3 -5 1
-12 -5 -16 -5 -3 -10 1 -10 9 0 18 6 21 15 7z"/>
</g>
</svg>
